<svg xmlns="http://www.w3.org/2000/svg" width="16" height="16" viewBox="0 0 16 16">
  <metadata><?xpacket begin="﻿" id="W5M0MpCehiHzreSzNTczkc9d"?>
<x:xmpmeta xmlns:x="adobe:ns:meta/" x:xmptk="Adobe XMP Core 5.6-c138 79.159824, 2016/09/14-01:09:01        ">
   <rdf:RDF xmlns:rdf="http://www.w3.org/1999/02/22-rdf-syntax-ns#">
      <rdf:Description rdf:about=""/>
   </rdf:RDF>
</x:xmpmeta>
                                                                                                    
                                                                                                    
                                                                                                    
                                                                                                    
                                                                                                    
                                                                                                    
                                                                                                    
                                                                                                    
                                                                                                    
                                                                                                    
                                                                                                    
                                                                                                    
                                                                                                    
                                                                                                    
                                                                                                    
                                                                                                    
                                                                                                    
                                                                                                    
                                                                                                    
                                                                                                    
                           
<?xpacket end="w"?></metadata>
<defs>
    <style>
      .cls-1 {
        fill: #e1e2e1;
        fill-rule: evenodd;
      }
    </style>
  </defs>
  <path id="back_arrow" data-name="back arrow" class="cls-1" d="M1372.16,853.876l-1.05-1.115a0.4,0.4,0,0,1,0-.558l7.19-7.628a0.35,0.35,0,0,1,.52,0l1.05,1.115a0.4,0.4,0,0,1,0,.557l-7.19,7.629A0.35,0.35,0,0,1,1372.16,853.876Zm6.14-6.48-7.2-7.618a0.422,0.422,0,0,1,0-.557l1.06-1.114a0.35,0.35,0,0,1,.52,0l7.2,7.619a0.4,0.4,0,0,1,0,.557l-1.05,1.113A0.362,0.362,0,0,1,1378.3,847.4Z" transform="translate(-1367.5 -838)"/>
</svg>
