<svg xmlns="http://www.w3.org/2000/svg" width="16" height="16" viewBox="0 0 16 16">
  <metadata><?xpacket begin="﻿" id="W5M0MpCehiHzreSzNTczkc9d"?>
<x:xmpmeta xmlns:x="adobe:ns:meta/" x:xmptk="Adobe XMP Core 5.6-c138 79.159824, 2016/09/14-01:09:01        ">
   <rdf:RDF xmlns:rdf="http://www.w3.org/1999/02/22-rdf-syntax-ns#">
      <rdf:Description rdf:about=""/>
   </rdf:RDF>
</x:xmpmeta>
                                                                                                    
                                                                                                    
                                                                                                    
                                                                                                    
                                                                                                    
                                                                                                    
                                                                                                    
                                                                                                    
                                                                                                    
                                                                                                    
                                                                                                    
                                                                                                    
                                                                                                    
                                                                                                    
                                                                                                    
                                                                                                    
                                                                                                    
                                                                                                    
                                                                                                    
                                                                                                    
                           
<?xpacket end="w"?></metadata>
<defs>
    <style>
      .cls-1 {
        fill: #939393;
        fill-rule: evenodd;
      }
    </style>
  </defs>
  <path id="ic-cart" class="cls-1" d="M1429.71,2715.15a1.425,1.425,0,1,0,1.41,1.42A1.417,1.417,0,0,0,1429.71,2715.15Zm0,2.05a0.625,0.625,0,0,1-.62-0.63,0.62,0.62,0,1,1,1.24,0A0.625,0.625,0,0,1,1429.71,2717.2Zm4.93-2.05a1.425,1.425,0,1,0,1.41,1.42A1.415,1.415,0,0,0,1434.64,2715.15Zm0,2.05a0.625,0.625,0,0,1-.62-0.63A0.625,0.625,0,1,1,1434.64,2717.2Zm0.35-9.56h-5.63a0.4,0.4,0,0,0,0,.8h5.63A0.4,0.4,0,0,0,1434.99,2707.64Zm-0.31,2.07h-5.01a0.4,0.4,0,0,0,0,.8h5.01A0.4,0.4,0,1,0,1434.68,2709.71Zm4.14-3.84a0.793,0.793,0,0,0-.61-0.29h-12.23l-0.25-1.22a0.814,0.814,0,0,0-.45-0.57l-1.73-.75a0.378,0.378,0,0,0-.51.2,0.4,0.4,0,0,0,.2.53l1.72,0.75,1.9,9.35a0.79,0.79,0,0,0,.77.63h9.41a0.384,0.384,0,0,0,.39-0.39,0.393,0.393,0,0,0-.39-0.4h-9.41l-0.23-1.14h9.71a0.774,0.774,0,0,0,.77-0.63l1.1-5.41A0.793,0.793,0,0,0,1438.82,2705.87Zm-1.71,5.91h-9.87l-1.1-5.41h12.07Z" transform="translate(-1423 -2702.5)"/>
</svg>
