<svg xmlns="http://www.w3.org/2000/svg" width="16" height="16" viewBox="0 0 16 16">
  <metadata><?xpacket begin="﻿" id="W5M0MpCehiHzreSzNTczkc9d"?>
<x:xmpmeta xmlns:x="adobe:ns:meta/" x:xmptk="Adobe XMP Core 5.6-c138 79.159824, 2016/09/14-01:09:01        ">
   <rdf:RDF xmlns:rdf="http://www.w3.org/1999/02/22-rdf-syntax-ns#">
      <rdf:Description rdf:about=""/>
   </rdf:RDF>
</x:xmpmeta>
                                                                                                    
                                                                                                    
                                                                                                    
                                                                                                    
                                                                                                    
                                                                                                    
                                                                                                    
                                                                                                    
                                                                                                    
                                                                                                    
                                                                                                    
                                                                                                    
                                                                                                    
                                                                                                    
                                                                                                    
                                                                                                    
                                                                                                    
                                                                                                    
                                                                                                    
                                                                                                    
                           
<?xpacket end="w"?></metadata>
<defs>
    <style>
      .cls-1 {
        fill: #fff;
        fill-rule: evenodd;
      }
    </style>
  </defs>
  <path id="ic-delete" class="cls-1" d="M1110.88,1653.88h-2.2v-1.38a0.506,0.506,0,0,0-.52-0.5,0.06,0.06,0,0,1-.09,0h-5.23a0.5,0.5,0,0,0-.51.5v1.38h-2.21a1.093,1.093,0,0,0-1.12,1.09v1.79h0.97v10.16a1.076,1.076,0,0,0,1.11,1.08h8.83a1.088,1.088,0,0,0,1.13-1.08v-10.16H1112v-1.79A1.093,1.093,0,0,0,1110.88,1653.88Zm-7.53-.89h4.3v0.89h-4.3v-0.89Zm6.66,13.93a0.083,0.083,0,0,1-.1.09h-8.83a0.08,0.08,0,0,1-.09-0.09v-10.16h9.02v10.16Zm0.96-11.15h-10.94v-0.8a0.08,0.08,0,0,1,.09-0.09h10.76a0.08,0.08,0,0,1,.09.09v0.8h0Zm-3.6,2.15h1.03v8.2h-1.03v-8.2Zm-2.38,0h1.03v8.2h-1.03v-8.2Zm-2.37,0h1.03v8.2h-1.03v-8.2Z" transform="translate(-1097.5 -1652)"/>
</svg>
