<svg xmlns="http://www.w3.org/2000/svg" width="75" height="75" viewBox="0 0 75 75">
  <metadata><?xpacket begin="﻿" id="W5M0MpCehiHzreSzNTczkc9d"?>
<x:xmpmeta xmlns:x="adobe:ns:meta/" x:xmptk="Adobe XMP Core 5.6-c138 79.159824, 2016/09/14-01:09:01        ">
   <rdf:RDF xmlns:rdf="http://www.w3.org/1999/02/22-rdf-syntax-ns#">
      <rdf:Description rdf:about=""/>
   </rdf:RDF>
</x:xmpmeta>
                                                                                                    
                                                                                                    
                                                                                                    
                                                                                                    
                                                                                                    
                                                                                                    
                                                                                                    
                                                                                                    
                                                                                                    
                                                                                                    
                                                                                                    
                                                                                                    
                                                                                                    
                                                                                                    
                                                                                                    
                                                                                                    
                                                                                                    
                                                                                                    
                                                                                                    
                                                                                                    
                           
<?xpacket end="w"?></metadata>
<defs>
    <style>
      .cls-1 {
        fill: #939393;
        fill-rule: evenodd;
      }
    </style>
  </defs>
  <path id="ic-facvorites" class="cls-1" d="M745.167,2730.43a5.056,5.056,0,0,0,1.252-5.15,4.946,4.946,0,0,0-3.992-3.42l-16.408-2.42a0.975,0.975,0,0,1-.745-0.54l-7.338-15.1a4.912,4.912,0,0,0-8.869,0l-7.339,15.1a0.975,0.975,0,0,1-.745.54l-16.408,2.42a4.945,4.945,0,0,0-3.992,3.42,5.053,5.053,0,0,0,1.251,5.15l11.874,11.75a1,1,0,0,1,.283.88l-2.8,16.59a5.021,5.021,0,0,0,1.968,4.91,4.849,4.849,0,0,0,5.208.39l14.676-7.84a1,1,0,0,1,.921,0l14.676,7.84a4.847,4.847,0,0,0,5.208-.39,5.019,5.019,0,0,0,1.966-4.91l-2.8-16.59a1.006,1.006,0,0,1,.287-0.88Zm-16.056,13.31,2.8,16.59a1,1,0,0,1-.392.99,0.983,0.983,0,0,1-1.043.07l-14.676-7.83a4.854,4.854,0,0,0-4.6,0l-14.676,7.83a0.98,0.98,0,0,1-1.041-.07,1,1,0,0,1-.394-0.99l2.8-16.59a5.067,5.067,0,0,0-1.422-4.44L684.6,2727.55a0.99,0.99,0,0,1-.25-1.03,0.964,0.964,0,0,1,.8-0.68l16.409-2.42a4.962,4.962,0,0,0,3.723-2.75l7.338-15.09a0.983,0.983,0,0,1,1.775,0h0l7.337,15.09a4.944,4.944,0,0,0,3.723,2.75l16.409,2.42a0.964,0.964,0,0,1,.8.68,0.99,0.99,0,0,1-.25,1.03l-11.874,11.75A5.067,5.067,0,0,0,729.111,2743.74Zm7.5-39.94a1.959,1.959,0,0,0-2.763.45l-2.1,2.93a2.018,2.018,0,0,0,.437,2.8,1.947,1.947,0,0,0,1.161.39,1.968,1.968,0,0,0,1.6-.83l2.1-2.93A2.034,2.034,0,0,0,736.611,2703.8Zm-41.365,3.37-2.1-2.94a1.966,1.966,0,0,0-2.763-.44,2.025,2.025,0,0,0-.438,2.8l2.1,2.94a1.972,1.972,0,0,0,1.6.83,1.94,1.94,0,0,0,1.16-.39A2.022,2.022,0,0,0,695.246,2707.17Zm-11.982,38.89a1.964,1.964,0,0,0-2.494-1.29l-3.4,1.12a2.011,2.011,0,0,0-1.27,2.53,1.984,1.984,0,0,0,1.881,1.39,2.169,2.169,0,0,0,.611-0.1l3.4-1.12A2.019,2.019,0,0,0,683.264,2746.06Zm30.239,22.29a1.994,1.994,0,0,0-1.979,2.01v3.63a1.978,1.978,0,1,0,3.956,0v-3.63A1.994,1.994,0,0,0,713.5,2768.35Zm36.126-22.46-3.4-1.12a1.978,1.978,0,0,0-2.492,1.29,2.015,2.015,0,0,0,1.27,2.53l3.4,1.12a1.862,1.862,0,0,0,.611.1,1.985,1.985,0,0,0,1.883-1.39A2.017,2.017,0,0,0,749.629,2745.89Z" transform="translate(-676 -2701)"/>
</svg>
