<svg xmlns="http://www.w3.org/2000/svg" width="28.031" height="27" viewBox="0 0 28.031 27">
  <metadata><?xpacket begin="﻿" id="W5M0MpCehiHzreSzNTczkc9d"?>
<x:xmpmeta xmlns:x="adobe:ns:meta/" x:xmptk="Adobe XMP Core 5.6-c138 79.159824, 2016/09/14-01:09:01        ">
   <rdf:RDF xmlns:rdf="http://www.w3.org/1999/02/22-rdf-syntax-ns#">
      <rdf:Description rdf:about=""/>
   </rdf:RDF>
</x:xmpmeta>
                                                                                                    
                                                                                                    
                                                                                                    
                                                                                                    
                                                                                                    
                                                                                                    
                                                                                                    
                                                                                                    
                                                                                                    
                                                                                                    
                                                                                                    
                                                                                                    
                                                                                                    
                                                                                                    
                                                                                                    
                                                                                                    
                                                                                                    
                                                                                                    
                                                                                                    
                                                                                                    
                           
<?xpacket end="w"?></metadata>
<defs>
    <style>
      .cls-1 {
        fill: #fff;
        fill-rule: evenodd;
      }
    </style>
  </defs>
  <path id="ic-home" class="cls-1" d="M841.525,1082.2l-4.245-4.39v-5.08a1.607,1.607,0,1,0-3.213,0v1.75l-3.163-3.27a4.128,4.128,0,0,0-5.842,0l-10.619,10.99a1.7,1.7,0,0,0,0,2.35,1.567,1.567,0,0,0,2.272,0l10.619-10.99a0.935,0.935,0,0,1,1.3,0l10.621,10.99a1.561,1.561,0,0,0,2.271,0A1.7,1.7,0,0,0,841.525,1082.2Zm-12.983-5.48a0.769,0.769,0,0,0-1.116,0l-9.34,9.66a0.821,0.821,0,0,0-.231.58V1094a2.946,2.946,0,0,0,2.894,3h4.624v-7.41H830.6V1097h4.625a2.947,2.947,0,0,0,2.894-3v-7.04a0.826,0.826,0,0,0-.231-0.58Z" transform="translate(-813.969 -1070)"/>
</svg>
