<svg xmlns="http://www.w3.org/2000/svg" width="16" height="16" viewBox="0 0 16 16">
  <metadata><?xpacket begin="﻿" id="W5M0MpCehiHzreSzNTczkc9d"?>
<x:xmpmeta xmlns:x="adobe:ns:meta/" x:xmptk="Adobe XMP Core 5.6-c138 79.159824, 2016/09/14-01:09:01        ">
   <rdf:RDF xmlns:rdf="http://www.w3.org/1999/02/22-rdf-syntax-ns#">
      <rdf:Description rdf:about=""/>
   </rdf:RDF>
</x:xmpmeta>
                                                                                                    
                                                                                                    
                                                                                                    
                                                                                                    
                                                                                                    
                                                                                                    
                                                                                                    
                                                                                                    
                                                                                                    
                                                                                                    
                                                                                                    
                                                                                                    
                                                                                                    
                                                                                                    
                                                                                                    
                                                                                                    
                                                                                                    
                                                                                                    
                                                                                                    
                                                                                                    
                           
<?xpacket end="w"?></metadata>
<defs>
    <style>
      .cls-1 {
        fill: #939393;
        fill-rule: evenodd;
      }
    </style>
  </defs>
  <path id="ic-history" class="cls-1" d="M926.319,2709a1.34,1.34,0,1,0,1.319,1.34A1.33,1.33,0,0,0,926.319,2709Zm0,1.85a0.515,0.515,0,1,1,.508-0.51A0.51,0.51,0,0,1,926.319,2710.85Zm14.275-1.82H928.825a0.412,0.412,0,0,0-.406.41v1.86a0.412,0.412,0,0,0,.406.41h11.769a0.411,0.411,0,0,0,.4-0.41v-1.86A0.411,0.411,0,0,0,940.594,2709.03Zm-0.406,1.85H929.231v-1.03h10.957v1.03h0Zm-13.869,3.27a1.335,1.335,0,1,0,1.319,1.33A1.328,1.328,0,0,0,926.319,2714.15Zm0,1.85a0.515,0.515,0,1,1,.508-0.52A0.512,0.512,0,0,1,926.319,2716Zm14.275-1.82H928.825a0.406,0.406,0,0,0-.406.41v1.85a0.406,0.406,0,0,0,.406.41h11.769a0.405,0.405,0,0,0,.4-0.41v-1.85A0.405,0.405,0,0,0,940.594,2714.18Zm-0.406,1.85H929.231V2715h10.957v1.03h0Zm-13.869,3.26a1.34,1.34,0,1,0,1.319,1.34A1.33,1.33,0,0,0,926.319,2719.29Zm0,1.85a0.51,0.51,0,1,1,.508-0.51A0.51,0.51,0,0,1,926.319,2721.14Zm14.275-1.82H928.825a0.412,0.412,0,0,0-.406.41v1.86a0.412,0.412,0,0,0,.406.41h11.769a0.411,0.411,0,0,0,.4-0.41v-1.86A0.411,0.411,0,0,0,940.594,2719.32Zm-0.406,1.86H929.231v-1.03h10.957v1.03h0Z" transform="translate(-925 -2707.5)"/>
</svg>
