<svg xmlns="http://www.w3.org/2000/svg" width="16" height="16" viewBox="0 0 16 16">
  <metadata><?xpacket begin="﻿" id="W5M0MpCehiHzreSzNTczkc9d"?>
<x:xmpmeta xmlns:x="adobe:ns:meta/" x:xmptk="Adobe XMP Core 5.6-c138 79.159824, 2016/09/14-01:09:01        ">
   <rdf:RDF xmlns:rdf="http://www.w3.org/1999/02/22-rdf-syntax-ns#">
      <rdf:Description rdf:about=""/>
   </rdf:RDF>
</x:xmpmeta>
                                                                                                    
                                                                                                    
                                                                                                    
                                                                                                    
                                                                                                    
                                                                                                    
                                                                                                    
                                                                                                    
                                                                                                    
                                                                                                    
                                                                                                    
                                                                                                    
                                                                                                    
                                                                                                    
                                                                                                    
                                                                                                    
                                                                                                    
                                                                                                    
                                                                                                    
                                                                                                    
                           
<?xpacket end="w"?></metadata>
<defs>
    <style>
      .cls-1 {
        fill: #939393;
        fill-rule: evenodd;
      }
    </style>
  </defs>
  <path id="ic-user" class="cls-1" d="M1689.65,2711.39a2.085,2.085,0,0,1-2.1-1.92,3.543,3.543,0,0,0,.82-0.82,5.109,5.109,0,0,0,.89-2.35,1.463,1.463,0,0,0,.09-0.13,4.057,4.057,0,0,0,.29-1.51,3.515,3.515,0,0,0-3.34-3.66,2.974,2.974,0,0,0-1.39.34,2.745,2.745,0,0,0-.5.08,2.823,2.823,0,0,0-1.73,1.61,4.1,4.1,0,0,0-.2,2.62,5.051,5.051,0,0,0,.18.55,0.273,0.273,0,0,0,.09.12,4.519,4.519,0,0,0,1.7,3.15,2.085,2.085,0,0,1-2.1,1.92,2.453,2.453,0,0,0-2.35,2.47v2.78a0.359,0.359,0,0,0,.36.36h11.28a0.359,0.359,0,0,0,.36-0.36v-2.78A2.453,2.453,0,0,0,1689.65,2711.39Zm-5.04-9.27a1.851,1.851,0,0,1,.41-0.07,0.419,0.419,0,0,0,.15-0.04,2.4,2.4,0,0,1,1.13-.29,2.8,2.8,0,0,1,2.63,2.94v0.15a1.54,1.54,0,0,0-1.11-.48h-2.42a0.612,0.612,0,0,1-.39-0.13,0.643,0.643,0,0,1-.22-0.29,0.438,0.438,0,0,0-.43-0.27,0.415,0.415,0,0,0-.39.33,3.3,3.3,0,0,1-.81,1.46A2.691,2.691,0,0,1,1684.61,2702.12Zm-0.31,6.23a4.329,4.329,0,0,1-.86-2.19,4.237,4.237,0,0,0,1.04-1.47,1.063,1.063,0,0,0,.11.09,1.326,1.326,0,0,0,.81.28h2.42a0.826,0.826,0,0,1,.77.5v0.01c0,2.03-1.16,3.69-2.59,3.69A2.248,2.248,0,0,1,1684.3,2708.35Zm0.82,1.47a2.5,2.5,0,0,0,1.76,0,2.841,2.841,0,0,0,1.03,1.7l-1.86,2.69a0.057,0.057,0,0,1-.1,0l-1.86-2.69A2.841,2.841,0,0,0,1685.12,2709.82Zm6.17,6.46h-10.58v-2.42a1.741,1.741,0,0,1,1.73-1.75,3.188,3.188,0,0,0,1.03-.22l1.9,2.74a0.756,0.756,0,0,0,.63.33h0a0.756,0.756,0,0,0,.63-0.33l1.9-2.74a2.883,2.883,0,0,0,1.03.22,1.741,1.741,0,0,1,1.73,1.75v2.42h0Z" transform="translate(-1678 -2701)"/>
</svg>
