<svg xmlns="http://www.w3.org/2000/svg" width="40.97" height="39" viewBox="0 0 40.97 39">
  <metadata><?xpacket begin="﻿" id="W5M0MpCehiHzreSzNTczkc9d"?>
<x:xmpmeta xmlns:x="adobe:ns:meta/" x:xmptk="Adobe XMP Core 5.6-c138 79.159824, 2016/09/14-01:09:01        ">
   <rdf:RDF xmlns:rdf="http://www.w3.org/1999/02/22-rdf-syntax-ns#">
      <rdf:Description rdf:about=""/>
   </rdf:RDF>
</x:xmpmeta>
                                                                                                    
                                                                                                    
                                                                                                    
                                                                                                    
                                                                                                    
                                                                                                    
                                                                                                    
                                                                                                    
                                                                                                    
                                                                                                    
                                                                                                    
                                                                                                    
                                                                                                    
                                                                                                    
                                                                                                    
                                                                                                    
                                                                                                    
                                                                                                    
                                                                                                    
                                                                                                    
                           
<?xpacket end="w"?></metadata>
<defs>
    <style>
      .cls-1 {
        fill: #ffa800;
        fill-rule: evenodd;
      }
    </style>
  </defs>
  <path id="Forma_1" data-name="Forma 1" class="cls-1" d="M1301.09,1140.67a2.908,2.908,0,0,0-1.63-4.98l-9.92-1.43a1.32,1.32,0,0,1-.97-0.71l-4.44-8.93a2.953,2.953,0,0,0-5.27,0l-4.43,8.93a1.313,1.313,0,0,1-.98.71l-9.92,1.43a2.92,2.92,0,0,0-2.37,1.98,2.886,2.886,0,0,0,.74,3l7.18,6.95a1.268,1.268,0,0,1,.37,1.14l-1.69,9.81a2.871,2.871,0,0,0,.64,2.37,2.992,2.992,0,0,0,3.62.71l8.87-4.64a1.356,1.356,0,0,1,1.21,0l8.87,4.64a3.05,3.05,0,0,0,1.37.34,2.991,2.991,0,0,0,2.26-1.05,2.832,2.832,0,0,0,.63-2.37l-1.69-9.81a1.274,1.274,0,0,1,.38-1.14Z" transform="translate(-1261.03 -1123)"/>
</svg>
